<svg width="64" height="64" viewBox="0 0 64 64" fill="none" xmlns="http://www.w3.org/2000/svg">
                          <g clip-path="url(#clip0)">
                          <path fill-rule="evenodd" clip-rule="evenodd" d="M28.5257 43.4903C36.9019 43.4903 41.5427 32.0906 41.7835 24.8595C41.8607 22.5514 41.5864 20.2843 40.895 18.2422C39.2635 13.424 35.3992 9.87813 28.5257 9.87813C21.6508 9.87813 17.7878 13.424 16.1577 18.2422C15.4662 20.283 15.1919 22.5514 15.2692 24.8595C15.5203 32.2901 20.1314 43.4903 28.5257 43.4903ZM36.1564 23.2586C37.2135 23.444 37.9797 23.9069 38.4883 24.4938C39.136 25.2431 39.3936 26.2034 39.3214 27.0525C38.572 32.4435 34.8275 41.2308 28.5257 41.2308C22.3591 41.2308 18.5965 32.8259 17.7634 27.2763C18.1497 26.119 19.5107 23.5693 20.8203 23.256C23.8141 24.5283 26.1422 25.0129 28.5102 24.9324C30.8589 24.8544 33.1587 24.2227 36.1564 23.2586ZM44.9884 11.3307C44.9884 6.88467 49.5236 4.2582 53.5501 4.2582C57.5767 4.2582 62.1092 6.88467 62.1092 11.3307C62.1092 16.4993 56.5027 18.8074 52.0011 18.2959L47.7621 20.6666L48.657 17.1757C46.5491 15.6975 44.9884 14.0518 44.9884 11.3307ZM53.5501 2C48.2553 2 42.7144 5.61747 42.7144 11.3307C42.7144 14.0071 44.0253 16.4059 46.0778 18.09L44.2468 25.2201L52.4827 20.6142C58.1432 21.0106 64.3832 17.5261 64.3832 11.3307C64.3832 5.61619 58.8463 2 53.5501 2ZM52.511 9.42163V15.9175C52.511 17.2371 54.588 17.2 54.588 15.9175V9.42163C54.588 8.13909 52.511 8.10968 52.511 9.42163ZM52.8007 7.30409C53.1922 7.69154 53.9068 7.69154 54.2983 7.30409C54.6923 6.91152 54.6923 6.13023 54.2983 5.73895C53.9081 5.35022 53.1922 5.35022 52.8007 5.73895C52.4067 6.13023 52.4067 6.91152 52.8007 7.30409ZM27.605 55.5677C28.0479 56.1802 28.9699 56.1994 29.4335 55.5895L37.8252 44.5363C44.4167 45.6117 48.8064 47.618 51.459 50.3544C53.8914 52.8645 54.8751 56.0485 54.7734 59.7325C37.2766 59.5522 19.7786 59.9396 2.2818 59.7555C2.17879 56.1879 3.08144 53.0883 5.32841 50.6191C8.7536 46.8571 14.3253 45.379 19.194 44.535L27.605 55.5677ZM53.0917 48.7918C50.0065 45.6104 44.9846 43.3253 37.4981 42.1988C37.0513 42.1323 36.6264 42.3331 36.3894 42.6809L28.5244 53.0397L20.595 42.6387C20.322 42.2781 19.8713 42.1259 19.4541 42.2141C13.8012 43.1041 7.56637 44.8074 3.6493 49.1102C0.72244 52.3262 -0.296102 56.3503 0.0721694 60.9562C0.121101 61.5725 0.660632 62.0342 1.28 61.9945C19.4657 62.2093 37.6513 61.7784 55.837 61.9932C56.4281 61.9996 56.983 61.4191 56.983 60.9562C57.3629 56.193 56.2542 52.0538 53.0917 48.7918ZM28.5257 12.1363C34.2287 12.1363 37.4157 15.0275 38.7459 18.957C39.1 20.0042 39.3292 21.1282 39.4425 22.2944C38.3866 21.4594 37.265 21.1244 35.9478 20.9582C33.5733 21.7215 30.9491 22.5987 28.4407 22.6844C25.8422 22.7726 23.5759 21.9965 21.2285 20.9773C19.6189 20.9773 18.536 21.8686 17.5535 23.0309C17.6333 21.6026 17.878 20.2229 18.3068 18.957C19.6369 15.0275 22.8252 12.1363 28.5257 12.1363Z" fill="#89C142"></path>
                          </g>
                          <defs>
                          <clipPath id="clip0">
                          <rect width="64" height="64" fill="#89C142"></rect>
                          </clipPath>
                          </defs>
                      </svg>